# xmcd
#
# Track frame offsets:
#  150
#  19894
#  42711
#  68393
#  90353
#  107535
#  134760
#  167928
#  190026
#  203686
#  222975
#  246200
#
# Disc length: 3641 seconds
#
# Revision: 0
# Processed by: cddbd v1.5.1PL0 Copyright (c) Steve Scherf et al.
# Submitted via: Collectorz.com Music Collector 6.9
#
DISCID=a70e370c
DTITLE=steve earle - Mccabe's Guitar Shop - 19th Dec 1987- Early Show - Disc 1
DYEAR=1987
DGENRE=
TTITLE0=Baby Let Me Follow You Down
TTITLE1=Angry Young Man
TTITLE2=Hometown Blues
TTITLE3=My Old Friend The Blues
TTITLE4=Someday
TTITLE5=Johnny Come Lately
TTITLE6=Nothing But A Child
TTITLE7=Lungs
TTITLE8=So Different Blues
TTITLE9=The Rain Came Down
TTITLE10=Copperhead Road
TTITLE11=Data track
EXTD=
EXTT0=
EXTT1=
EXTT2=
EXTT3=
EXTT4=
EXTT5=
EXTT6=
EXTT7=
EXTT8=
EXTT9=
EXTT10=
EXTT11=
PLAYORDER=
